<!--?xml version="1.0" standalone="no"?-->
              <svg id="sw-js-blob-svg" viewBox="0 0 100 100" xmlns="http://www.w3.org/2000/svg" version="1.1">
                    <defs> 
                        <linearGradient id="sw-gradient" x1="0" x2="1" y1="1" y2="0">
                            <stop id="stop1" stop-color="rgba(30, 50, 99, 1)" offset="0%"></stop>
                            <stop id="stop2" stop-color="rgba(56.661, 90.778, 174.364, 1)" offset="100%"></stop>
                        </linearGradient>
                    </defs>
                <path fill="url(#sw-gradient)" d="M9.8,-13.7C14.8,-14,22.7,-15.8,28.3,-13.8C34,-11.7,37.5,-5.9,34.6,-1.7C31.7,2.5,22.5,5.1,16.4,6.4C10.4,7.8,7.5,7.9,5.3,12.2C3.1,16.5,1.5,25.1,-0.8,26.4C-3.1,27.8,-6.3,22,-6.3,16.5C-6.4,10.9,-3.4,5.6,-9.1,2.9C-14.9,0.1,-29.5,0.1,-32,-1.5C-34.6,-3,-25.1,-6,-18.4,-7.1C-11.7,-8.2,-7.7,-7.4,-5.1,-8.5C-2.5,-9.7,-1.3,-12.9,0.5,-13.8C2.3,-14.7,4.7,-13.4,9.8,-13.7Z" width="100%" height="100%" transform="translate(50 50)" style="transition: 0.3s;" stroke-width="0" stroke="url(#sw-gradient)"></path>
              </svg>